<?xml version="1.0" encoding="UTF-8" standalone="no"?>
<svg
   xmlns:dc="http://purl.org/dc/elements/1.1/"
   xmlns:cc="http://creativecommons.org/ns#"
   xmlns:rdf="http://www.w3.org/1999/02/22-rdf-syntax-ns#"
   xmlns:svg="http://www.w3.org/2000/svg"
   xmlns="http://www.w3.org/2000/svg"
   xmlns:sodipodi="http://sodipodi.sourceforge.net/DTD/sodipodi-0.dtd"
   xmlns:inkscape="http://www.inkscape.org/namespaces/inkscape"
   version="1.1"
   id="svg3772"
   viewBox="0 0 744.09448819 1052.3622047"
   height="297mm"
   width="210mm"
   inkscape:version="0.91 r13725"
   sodipodi:docname="plain_cover_hinge.svg">
  <sodipodi:namedview
     pagecolor="#ffffff"
     bordercolor="#666666"
     borderopacity="1"
     objecttolerance="10"
     gridtolerance="10"
     guidetolerance="10"
     inkscape:pageopacity="0"
     inkscape:pageshadow="2"
     inkscape:window-width="1445"
     inkscape:window-height="828"
     id="namedview40"
     showgrid="false"
     inkscape:zoom="0.63429568"
     inkscape:cx="-254.01123"
     inkscape:cy="625.84482"
     inkscape:window-x="0"
     inkscape:window-y="0"
     inkscape:window-maximized="0"
     inkscape:current-layer="layer1" />
  <defs
     id="defs3774">
    <clipPath
       clipPathUnits="userSpaceOnUse"
       id="clipPath6182">
      <path
         d="m 12,12 588,0 0,768 -588,0 0,-768 z"
         id="path6184" />
    </clipPath>
    <clipPath
       clipPathUnits="userSpaceOnUse"
       id="clipPath6182-6">
      <path
         d="m 12,12 588,0 0,768 -588,0 0,-768 z"
         id="path6184-9" />
    </clipPath>
  </defs>
  <metadata
     id="metadata3777">
    <rdf:RDF>
      <cc:Work
         rdf:about="">
        <dc:format>image/svg+xml</dc:format>
        <dc:type
           rdf:resource="http://purl.org/dc/dcmitype/StillImage" />
        <dc:title />
      </cc:Work>
    </rdf:RDF>
  </metadata>
  <g
     id="layer1"
     transform="translate(-192.85875,153.28369)">
    <path
       id="path3852"
       d="m 248.51667,518.06754 0,63.30244 15.95016,0 0,-56.63902 5.31672,0 0,56.63902 15.95016,0 0,-56.63902 5.31672,0 0,56.63902 15.95016,0 0,-56.63902 5.31672,0 0,56.63902 16.11508,0 -0.50525,-56.63902 5.65705,0 0,56.63902 5.31672,0 0,-63.30244 -15.95016,0 0,56.63902 -5.31672,0 0,-56.63902 -15.95016,0 0,56.63902 -5.31672,0 0,-56.63902 -15.95016,0 0,56.63902 -5.31672,0 0,-56.63902 -15.95016,0 0,56.63902 -5.31672,0 0,-56.63902 -5.31672,0 0,0"
       style="fill:none;fill-rule:evenodd;stroke:#000000;stroke-width:0.96984184px;stroke-linecap:butt;stroke-linejoin:miter;stroke-opacity:1"
       inkscape:connector-curvature="0" />
    <path
       id="path3852-5"
       d="m 248.51667,450.72579 0,63.30244 15.95016,0 0,-56.63902 5.31672,0 0,56.63902 15.95016,0 0,-56.63902 5.31672,0 0,56.63902 15.95016,0 0,-56.63902 5.31672,0 0,56.63902 16.11508,0 -0.50525,-56.63902 5.65705,0 0,56.63902 5.31672,0 0,-63.30244 -15.95016,0 0,56.63902 -5.31672,0 0,-56.63902 -15.95016,0 0,56.63902 -5.31672,0 0,-56.63902 -15.95016,0 0,56.63902 -5.31672,0 0,-56.63902 -15.95016,0 0,56.63902 -5.31672,0 0,-56.63902 -5.31672,0 0,0"
       style="fill:none;fill-rule:evenodd;stroke:#000000;stroke-width:0.96984184px;stroke-linecap:butt;stroke-linejoin:miter;stroke-opacity:1"
       inkscape:connector-curvature="0" />
    <path
       id="path3852-5-9"
       d="m 248.50986,384.11474 0,63.30244 15.95016,0 0,-56.63902 5.31672,0 0,56.63902 15.95016,0 0,-56.63902 5.31671,0 0,56.63902 15.95017,0 0,-56.63902 5.31672,0 0,56.63902 16.11507,0 -0.50524,-56.63902 5.65705,0 0,56.63902 5.31672,0 0,-63.30244 -15.95016,0 0,56.63902 -5.31672,0 0,-56.63902 -15.95017,0 0,56.63902 -5.31672,0 0,-56.63902 -15.95015,0 0,56.63902 -5.31672,0 0,-56.63902 -15.95016,0 0,56.63902 -5.31672,0 0,-56.63902 -5.31672,0 0,0"
       style="fill:none;fill-rule:evenodd;stroke:#000000;stroke-width:0.96984184px;stroke-linecap:butt;stroke-linejoin:miter;stroke-opacity:1"
       inkscape:connector-curvature="0" />
    <path
       id="path3852-5-9-4"
       d="m 248.50986,317.74548 0,63.30244 15.95016,0 0,-56.63902 5.31672,0 0,56.63902 15.95016,0 0,-56.63902 5.31671,0 0,56.63902 15.95017,0 0,-56.63902 5.31672,0 0,56.63902 16.11507,0 -0.50524,-56.63902 5.65705,0 0,56.63902 5.31672,0 0,-63.30244 -15.95016,0 0,56.63902 -5.31672,0 0,-56.63902 -15.95017,0 0,56.63902 -5.31672,0 0,-56.63902 -15.95015,0 0,56.63902 -5.31672,0 0,-56.63902 -15.95016,0 0,56.63902 -5.31672,0 0,-56.63902 -5.31672,0 0,0"
       style="fill:none;fill-rule:evenodd;stroke:#000000;stroke-width:0.96984184px;stroke-linecap:butt;stroke-linejoin:miter;stroke-opacity:1"
       inkscape:connector-curvature="0" />
    <path
       id="path3852-5-9-4-0"
       d="m 248.25724,250.7826 0,63.30244 15.95016,0 0,-56.63902 5.31671,0 0,56.63902 15.95016,0 0,-56.63902 5.31672,0 0,56.63902 15.95017,0 0,-56.63902 5.31672,0 0,56.63902 16.11507,0 -0.50525,-56.63902 5.65705,0 0,56.63902 5.31672,0 0,-63.30244 -15.95015,0 0,56.63902 -5.31672,0 0,-56.63902 -15.95017,0 0,56.63902 -5.31672,0 0,-56.63902 -15.95016,0 0,56.63902 -5.31672,0 0,-56.63902 -15.95015,0 0,56.63902 -5.31672,0 0,-56.63902 -5.31672,0 0,0"
       style="fill:none;fill-rule:evenodd;stroke:#000000;stroke-width:0.96984184px;stroke-linecap:butt;stroke-linejoin:miter;stroke-opacity:1"
       inkscape:connector-curvature="0" />
    <path
       id="path3852-5-9-4-0-3"
       d="m 248.25724,183.8197 0,63.30244 15.95016,0 0,-56.63902 5.31671,0 0,56.63902 15.95016,0 0,-56.63902 5.31672,0 0,56.63902 15.95017,0 0,-56.63902 5.31672,0 0,56.63902 16.11507,0 -0.50525,-56.63902 5.65705,0 0,56.63902 5.31672,0 0,-63.30244 -15.95015,0 0,56.63902 -5.31672,0 0,-56.63902 -15.95017,0 0,56.63902 -5.31672,0 0,-56.63902 -15.95016,0 0,56.63902 -5.31672,0 0,-56.63902 -15.95015,0 0,56.63902 -5.31672,0 0,-56.63902 -5.31672,0 0,0"
       style="fill:none;fill-rule:evenodd;stroke:#000000;stroke-width:0.96984184px;stroke-linecap:butt;stroke-linejoin:miter;stroke-opacity:1"
       inkscape:connector-curvature="0" />
    <path
       id="path3852-5-9-4-0-3-7"
       d="m 247.75199,117.80665 0,63.30244 15.95016,0 0,-56.63902 5.31672,0 0,56.63902 15.95015,0 0,-56.63902 5.31672,0 0,56.63902 15.95017,0 0,-56.63902 5.31672,0 0,56.63902 16.11507,0 -0.50524,-56.63902 5.65705,0 0,56.63902 5.31672,0 0,-63.30244 -15.95016,0 0,56.63902 -5.31672,0 0,-56.63902 -15.95017,0 0,56.63902 -5.31672,0 0,-56.63902 -15.95015,0 0,56.63902 -5.31672,0 0,-56.63902 -15.95016,0 0,56.63902 -5.31672,0 0,-56.63902 -5.31672,0 0,0"
       style="fill:none;fill-rule:evenodd;stroke:#000000;stroke-width:0.96984184px;stroke-linecap:butt;stroke-linejoin:miter;stroke-opacity:1"
       inkscape:connector-curvature="0" />
    <path
       id="path3852-5-9-4-0-3-7-4"
       d="m 247.75199,50.843758 0,63.302452 15.95016,0 0,-56.639031 5.31672,0 0,56.639031 15.95015,0 0,-56.639031 5.31672,0 0,56.639031 15.95017,0 0,-56.639031 5.31672,0 0,56.639031 16.11507,0 -0.50524,-56.639031 5.65705,0 0,56.639031 5.31672,0 0,-63.302452 -15.95016,0 0,56.639032 -5.31672,0 0,-56.639032 -15.95017,0 0,56.639032 -5.31672,0 0,-56.639032 -15.95015,0 0,56.639032 -5.31672,0 0,-56.639032 -15.95016,0 0,56.639032 -5.31672,0 0,-56.639032 -5.31672,0 0,0"
       style="fill:none;fill-rule:evenodd;stroke:#000000;stroke-width:0.96984184px;stroke-linecap:butt;stroke-linejoin:miter;stroke-opacity:1"
       inkscape:connector-curvature="0" />
    <g
       style="fill:none;stroke:#000000;stroke-opacity:1"
       id="g6180"
       clip-path="url(#clipPath6182-6)"
       transform="matrix(1.011299,0,0,-0.97682754,198.34307,824.70409)">
      <g
         style="fill:none;stroke:#000000;stroke-opacity:1"
         id="g6186"
         transform="matrix(0.24,0,0,0.24,209.6648,644.4)" />
      <g
         style="fill:none;stroke:#000000;stroke-opacity:1"
         id="g6192"
         transform="matrix(0.24,0,0,0.24,522,644.4)" />
      <g
         style="fill:none;stroke:#000000;stroke-opacity:1"
         id="g6200"
         transform="matrix(0.24,0,0,0.24,421.4692,588.72)" />
      <g
         id="flowRoot3420"
         style="font-style:normal;font-weight:normal;font-size:90px;line-height:125%;font-family:sans-serif;letter-spacing:0px;word-spacing:0px;fill:none;fill-opacity:1;stroke:#000000;stroke-width:1px;stroke-linecap:butt;stroke-linejoin:miter;stroke-opacity:1"
         transform="matrix(0.98882724,0,0,-1.0237222,-196.12703,844.26785)" />
      <g
         id="text3428"
         style="font-style:normal;font-weight:normal;font-size:90.55110931px;line-height:125%;font-family:sans-serif;letter-spacing:0px;word-spacing:0px;fill:none;fill-opacity:1;stroke:#000000;stroke-width:1px;stroke-linecap:butt;stroke-linejoin:miter;stroke-opacity:1"
         transform="scale(0.98280906,-1.0174916)">
        <path
           inkscape:connector-curvature="0"
           id="path3370"
           style="fill:none;stroke:#000000;stroke-opacity:1"
           d="m -522.18455,-929.76538 0,14.06018 16.75726,0 0,6.32266 -16.75726,0 0,26.88236 q 0,6.05738 1.63593,7.78174 1.68015,1.72436 6.76481,1.72436 l 8.35652,0 0,6.80902 -8.35652,0 q -9.41767,0 -12.99904,-3.49294 -3.58137,-3.53715 -3.58137,-12.82218 l 0,-26.88236 -5.96894,0 0,-6.32266 5.96894,0 0,-14.06018 8.17967,0 z" />
        <path
           inkscape:connector-curvature="0"
           id="path3372"
           style="fill:none;stroke:#000000;stroke-opacity:1"
           d="m -494.32947,-932.19717 8.93131,0 0,27.05922 32.45337,0 0,-27.05922 8.93132,0 0,66.01211 -8.93132,0 0,-31.43644 -32.45337,0 0,31.43644 -8.93131,0 0,-66.01211 z" />
        <path
           inkscape:connector-curvature="0"
           id="path3374"
           style="fill:none;stroke:#000000;stroke-opacity:1"
           d="m -426.23928,-932.19717 41.7384,0 0,7.51645 -32.80709,0 0,19.54277 31.43644,0 0,7.51645 -31.43644,0 0,23.91999 33.60295,0 0,7.51645 -42.53426,0 0,-66.01211 z" />
        <path
           inkscape:connector-curvature="0"
           id="path3376"
           style="fill:none;stroke:#000000;stroke-opacity:1"
           d="m -340.94969,-934.98268 8.17967,0 0,40.63304 24.27371,-21.35556 10.39038,0 -26.26336,23.16835 27.36872,26.35179 -10.61145,0 -25.158,-24.18528 0,24.18528 -8.17967,0 0,-68.79762 z" />
        <path
           inkscape:connector-curvature="0"
           id="path3378"
           style="fill:none;stroke:#000000;stroke-opacity:1"
           d="m -287.93662,-932.19717 8.93131,0 0,66.01211 -8.93131,0 0,-66.01211 z" />
        <path
           inkscape:connector-curvature="0"
           id="path3380"
           style="fill:none;stroke:#000000;stroke-opacity:1"
           d="m -234.43717,-926.1398 q -9.72717,0 -15.47504,7.25117 -5.70366,7.25116 -5.70366,19.76384 0,12.46846 5.70366,19.71962 5.74787,7.25117 15.47504,7.25117 9.72717,0 15.38662,-7.25117 5.70366,-7.25116 5.70366,-19.71962 0,-12.51268 -5.70366,-19.76384 -5.65945,-7.25117 -15.38662,-7.25117 z m 0,-7.25116 q 13.88333,0 22.19564,9.32924 8.31231,9.28503 8.31231,24.93693 0,15.60768 -8.31231,24.93692 -8.31231,9.28503 -22.19564,9.28503 -13.92754,0 -22.28406,-9.28503 -8.31231,-9.28502 -8.31231,-24.93692 0,-15.6519 8.31231,-24.93693 8.35652,-9.32924 22.28406,-9.32924 z" />
        <path
           inkscape:connector-curvature="0"
           id="path3382"
           style="fill:none;stroke:#000000;stroke-opacity:1"
           d="m -150.38558,-930.03066 0,8.71023 q -5.08466,-2.43179 -9.59453,-3.62558 -4.50987,-1.19379 -8.71024,-1.19379 -7.29537,0 -11.27467,2.82973 -3.93508,2.82972 -3.93508,8.04702 0,4.37722 2.60865,6.63216 2.65286,2.21072 9.99245,3.58137 l 5.39416,1.10536 q 9.99246,1.90122 14.7234,6.72059 4.77515,4.77515 4.77515,12.82217 0,9.59453 -6.4553,14.54655 -6.41109,4.95201 -18.83534,4.95201 -4.68672,0 -9.99245,-1.06115 -5.26152,-1.06114 -10.92096,-3.13922 l 0,-9.1966 q 5.43837,3.0508 10.65567,4.5983 5.2173,1.54751 10.25774,1.54751 7.6491,0 11.80525,-3.00658 4.15615,-3.00658 4.15615,-8.5776 0,-4.86358 -3.00658,-7.60488 -2.96236,-2.74129 -9.77138,-4.11194 l -5.43837,-1.06114 q -9.99246,-1.98965 -14.45811,-6.23423 -4.46566,-4.24459 -4.46566,-11.80525 0,-8.75445 6.1458,-13.7949 6.19002,-5.04044 17.02255,-5.04044 4.64251,0 9.46188,0.84007 4.81938,0.84008 9.85982,2.52023 z" />
        <path
           inkscape:connector-curvature="0"
           id="path3384"
           style="fill:none;stroke:#000000;stroke-opacity:1"
           d="m -132.3019,-932.19717 8.93131,0 0,27.89929 29.623655,-27.89929 11.495747,0 -32.762882,30.77323 35.106245,35.23888 -11.761032,0 -31.701733,-31.79016 0,31.79016 -8.93131,0 0,-66.01211 z" />
      </g>
    </g>
    <g
       id="flowRoot4232"
       style="font-style:normal;font-variant:normal;font-weight:100;font-stretch:normal;font-size:90px;line-height:125%;font-family:Mill;-inkscape-font-specification:'Mill Thin';letter-spacing:0px;word-spacing:0px;fill:none;fill-opacity:1;stroke:#000000;stroke-width:1px;stroke-linecap:butt;stroke-linejoin:miter;stroke-opacity:1"
       transform="matrix(1.011299,0,0,-0.97682754,198.34307,824.70409)" />
    <g
       id="text4240"
       style="font-style:normal;font-weight:normal;font-size:113.18888855px;line-height:125%;font-family:sans-serif;letter-spacing:0px;word-spacing:0px;fill:none;fill-opacity:1;stroke:#000000;stroke-width:1px;stroke-linecap:butt;stroke-linejoin:miter;stroke-opacity:1"
       transform="matrix(0.99391385,0,0,0.99391382,198.34307,824.70409)">
      <path
         inkscape:connector-curvature="0"
         id="path3388"
         style="font-style:normal;font-variant:normal;font-weight:100;font-stretch:normal;font-size:113.18888855px;font-family:Mill;-inkscape-font-specification:'Mill Thin';fill:none;stroke:#000000;stroke-opacity:1"
         d="m 200.12203,-660.74415 -0.1658,0 -18.62532,0 c -0.33161,0 -0.55268,0.11054 -0.71848,0.27634 -0.22108,0.22107 -0.27635,0.44214 -0.27635,0.71848 0,0.27634 0.0553,0.49742 0.27635,0.66322 0.1658,0.22107 0.38687,0.27634 0.71848,0.27634 l 17.7963,0 0,57.534 c 0,0.27634 0.0553,0.49741 0.27634,0.71849 0.22107,0.22107 0.44214,0.27634 0.71848,0.27634 0.22108,0 0.44215,-0.0553 0.66322,-0.27634 0.22107,-0.22108 0.33161,-0.44215 0.33161,-0.71849 l 0,-57.534 17.7963,0 c 0.22107,0 0.44214,-0.0553 0.66321,-0.27634 0.22108,-0.1658 0.33161,-0.38688 0.33161,-0.66322 0,-0.27634 -0.11053,-0.49741 -0.33161,-0.71848 -0.22107,-0.1658 -0.44214,-0.27634 -0.66321,-0.27634 l -18.62532,0 -0.16581,0 z" />
      <path
         inkscape:connector-curvature="0"
         id="path3390"
         style="font-style:normal;font-variant:normal;font-weight:100;font-stretch:normal;font-size:113.18888855px;font-family:Mill;-inkscape-font-specification:'Mill Thin';fill:none;stroke:#000000;stroke-opacity:1"
         d="m 229.74569,-660.74415 c -0.27634,0 -0.49742,0.11054 -0.71849,0.27634 -0.22107,0.22107 -0.27634,0.44214 -0.27634,0.71848 l 0,27.74455 0,0.11053 0,0.11054 0,30.50794 c 0,0.27634 0.0553,0.49741 0.27634,0.71849 0.22107,0.22107 0.44215,0.27634 0.71849,0.27634 0.27634,0 0.49741,-0.0553 0.71848,-0.27634 0.1658,-0.22108 0.27634,-0.44215 0.27634,-0.71849 l 0,-30.2316 c 1.65804,-1.98965 3.64769,-3.53715 6.02421,-4.64251 2.32126,-1.10536 4.86359,-1.71331 7.57172,-1.71331 4.86359,0 9.00869,1.71331 12.49057,5.08465 3.42662,3.37135 5.25046,7.46119 5.361,12.2695 l 0,19.23327 c 0,0.27634 0.0553,0.49741 0.27634,0.71849 0.1658,0.22107 0.38688,0.27634 0.66322,0.27634 0.27634,0 0.49741,-0.0553 0.71848,-0.27634 0.1658,-0.22108 0.27634,-0.44215 0.27634,-0.71849 l 0,-19.23327 c -0.11054,-3.48188 -0.99482,-6.68743 -2.7634,-9.6719 -1.76858,-2.98447 -4.20037,-5.30573 -7.18484,-7.0743 -3.03974,-1.71331 -6.30056,-2.5976 -9.83771,-2.5976 -5.25046,0 -9.78244,1.82384 -13.59593,5.47153 l 0,-25.36802 c 0,-0.27634 -0.11054,-0.49741 -0.27634,-0.71848 -0.22107,-0.1658 -0.44214,-0.27634 -0.71848,-0.27634 z" />
      <path
         inkscape:connector-curvature="0"
         id="path3392"
         style="font-style:normal;font-variant:normal;font-weight:100;font-stretch:normal;font-size:113.18888855px;font-family:Mill;-inkscape-font-specification:'Mill Thin';fill:none;stroke:#000000;stroke-opacity:1"
         d="m 293.35917,-639.85284 c -3.59242,0 -6.9085,0.88429 -9.94824,2.65286 -3.03975,1.76858 -5.41627,4.20037 -7.18485,7.24011 -1.76857,3.03974 -2.65286,6.35582 -2.65286,9.89298 0,3.59242 0.88429,6.9085 2.65286,9.94824 1.76858,3.03974 4.1451,5.41626 7.18485,7.18484 3.03974,1.76858 6.35582,2.65287 9.94824,2.65287 3.37135,0 6.52162,-0.77376 9.45083,-2.37653 2.87393,-1.5475 5.25046,-3.70296 7.01904,-6.41109 0.11053,-0.1658 0.22107,-0.33161 0.22107,-0.55268 0,-0.27634 -0.11054,-0.49741 -0.33161,-0.71848 -0.22107,-0.16581 -0.44214,-0.27634 -0.66322,-0.27634 -0.3316,0 -0.60794,0.1658 -0.82902,0.44214 -1.65804,2.43179 -3.75822,4.36617 -6.35582,5.80314 -2.65286,1.43697 -5.47153,2.10019 -8.51127,2.10019 -3.20555,0 -6.19002,-0.77376 -8.95342,-2.37653 -2.7634,-1.5475 -4.91885,-3.70295 -6.46636,-6.46636 -1.60277,-2.70813 -2.37652,-5.6926 -2.37652,-8.95341 0,-3.20555 0.77375,-6.19002 2.37652,-8.95342 1.54751,-2.70813 3.70296,-4.86359 6.46636,-6.46636 2.7634,-1.5475 5.74787,-2.37652 8.95342,-2.37652 4.36617,0 8.17966,1.43697 11.49574,4.20037 3.31608,2.7634 5.30573,6.30055 6.07949,10.50092 l -30.0658,0 c -0.33161,0 -0.55268,0.11053 -0.71849,0.33161 -0.22107,0.22107 -0.27634,0.44214 -0.27634,0.66321 0,0.27634 0.0553,0.49741 0.27634,0.71849 0.16581,0.22107 0.38688,0.3316 0.71849,0.3316 l 31.22642,0 c 0.22108,0 0.44215,-0.11053 0.66322,-0.3316 0.22107,-0.22108 0.33161,-0.44215 0.33161,-0.71849 l -0.0553,0 0,-0.11053 c -0.55268,-4.97412 -2.70813,-9.11923 -6.46636,-12.49057 -3.75822,-3.37135 -8.1244,-5.08466 -13.20905,-5.08466 z" />
      <path
         inkscape:connector-curvature="0"
         id="path3394"
         style="font-style:normal;font-variant:normal;font-weight:100;font-stretch:normal;font-size:113.18888855px;font-family:Mill;-inkscape-font-specification:'Mill Thin';fill:none;stroke:#000000;stroke-opacity:1"
         d="m 351.55638,-660.74415 c -0.27634,0 -0.49741,0.11054 -0.71848,0.27634 -0.22107,0.22107 -0.27634,0.44214 -0.27634,0.71848 l 0,24.92588 0,0.11053 0,0.16581 0,33.27134 c 0,0.27634 0.0553,0.49741 0.27634,0.71849 0.22107,0.22107 0.44214,0.27634 0.71848,0.27634 0.27634,0 0.49741,-0.0553 0.71849,-0.27634 0.1658,-0.22108 0.27634,-0.44215 0.27634,-0.71849 l 0,-32.995 13.54066,-11.60628 17.9621,44.98816 c 0.16581,0.44214 0.49742,0.60795 0.93956,0.60795 0.22107,0 0.44214,-0.0553 0.66322,-0.27634 0.1658,-0.16581 0.27634,-0.38688 0.27634,-0.66322 0,-0.22107 -0.0553,-0.33161 -0.0553,-0.33161 l -18.18318,-45.59611 13.76174,-11.88262 c 0.22107,-0.16581 0.3316,-0.38688 0.3316,-0.71849 0,-0.27634 -0.11053,-0.49741 -0.3316,-0.71848 -0.22108,-0.1658 -0.44215,-0.27634 -0.66322,-0.27634 -0.22107,0 -0.44214,0.11054 -0.60795,0.27634 l -27.634,23.65471 0,-22.93623 c 0,-0.27634 -0.11054,-0.49741 -0.27634,-0.71848 -0.22108,-0.1658 -0.44215,-0.27634 -0.71849,-0.27634 z" />
      <path
         inkscape:connector-curvature="0"
         id="path3396"
         style="font-style:normal;font-variant:normal;font-weight:100;font-stretch:normal;font-size:113.18888855px;font-family:Mill;-inkscape-font-specification:'Mill Thin';fill:none;stroke:#000000;stroke-opacity:1"
         d="m 396.48928,-660.74415 c -0.88429,0 -1.60277,0.33161 -2.21072,0.88429 -0.60795,0.60795 -0.88429,1.32643 -0.88429,2.21072 0,0.88429 0.27634,1.60277 0.88429,2.21072 0.60795,0.55268 1.32643,0.88429 2.21072,0.88429 0.82902,0 1.54751,-0.33161 2.15546,-0.88429 0.55268,-0.60795 0.88428,-1.32643 0.88428,-2.21072 0,-0.88429 -0.3316,-1.60277 -0.88428,-2.21072 -0.60795,-0.55268 -1.32644,-0.88429 -2.15546,-0.88429 z m 0,1.93438 c 0.33161,0 0.55268,0.11054 0.77376,0.33161 0.22107,0.22107 0.3316,0.49741 0.3316,0.82902 0,0.33161 -0.11053,0.55268 -0.3316,0.77375 -0.22108,0.22107 -0.44215,0.27634 -0.77376,0.27634 -0.33161,0 -0.55268,-0.0553 -0.77375,-0.27634 -0.22107,-0.22107 -0.33161,-0.44214 -0.33161,-0.77375 0,-0.33161 0.11054,-0.60795 0.33161,-0.82902 0.22107,-0.22107 0.44214,-0.33161 0.77375,-0.33161 z m -0.0553,19.0122 c -0.27634,0 -0.49741,0.0553 -0.66321,0.27634 -0.22107,0.1658 -0.27634,0.38687 -0.27634,0.71848 l 0,37.58225 c 0,0.22107 0.0553,0.44214 0.27634,0.66322 0.22107,0.22107 0.44214,0.27634 0.71848,0.27634 0.22107,0 0.44215,-0.0553 0.66322,-0.22108 0.1658,-0.22107 0.27634,-0.44214 0.27634,-0.71848 l 0,-37.58225 c 0,-0.33161 -0.11054,-0.55268 -0.27634,-0.71848 -0.22107,-0.22108 -0.44215,-0.27634 -0.66322,-0.27634 l -0.0553,0 z" />
      <path
         inkscape:connector-curvature="0"
         id="path3398"
         style="font-style:normal;font-variant:normal;font-weight:100;font-stretch:normal;font-size:113.18888855px;font-family:Mill;-inkscape-font-specification:'Mill Thin';fill:none;stroke:#000000;stroke-opacity:1"
         d="m 427.99204,-639.85284 c -3.59242,0 -6.9085,0.88429 -9.94824,2.65286 -3.03974,1.76858 -5.41627,4.20037 -7.18484,7.24011 -1.76858,3.03974 -2.65287,6.35582 -2.65287,9.89298 0,3.59242 0.88429,6.9085 2.65287,9.94824 1.76857,2.98447 4.1451,5.41626 7.18484,7.18484 2.98447,1.76858 6.30055,2.65287 9.89297,2.65287 l 0.0553,0 c 3.59242,0 6.9085,-0.82903 9.94824,-2.5976 3.03974,-1.76858 5.41627,-4.20037 7.18484,-7.24011 1.76858,-3.03974 2.65287,-6.35582 2.65287,-9.89298 0,-3.59242 -0.88429,-6.9085 -2.65287,-9.94824 -1.76857,-3.03974 -4.1451,-5.41626 -7.12957,-7.18484 -3.03974,-1.76858 -6.35582,-2.65286 -9.94824,-2.65286 l -0.0553,-0.0553 z m 0,2.04492 c 3.20555,0 6.19002,0.77375 8.95342,2.37652 2.7634,1.5475 4.91885,3.70296 6.52162,6.46636 1.54751,2.70813 2.37653,5.6926 2.37653,8.95341 0,3.20555 -0.82902,6.19002 -2.37653,8.95342 -1.60277,2.70814 -3.75822,4.86359 -6.52162,6.46636 -2.7634,1.5475 -5.74787,2.37652 -8.95342,2.37652 -3.20554,0 -6.19002,-0.82902 -8.95342,-2.37652 -2.7634,-1.60277 -4.91885,-3.75822 -6.52162,-6.46636 -1.54751,-2.7634 -2.37653,-5.74787 -2.37653,-8.95342 0,-3.26081 0.82902,-6.24528 2.37653,-8.95341 1.60277,-2.7634 3.75822,-4.91886 6.52162,-6.46636 2.7634,-1.60277 5.74788,-2.37652 8.95342,-2.37652 z" />
      <path
         inkscape:connector-curvature="0"
         id="path3400"
         style="font-style:normal;font-variant:normal;font-weight:100;font-stretch:normal;font-size:113.18888855px;font-family:Mill;-inkscape-font-specification:'Mill Thin';fill:none;stroke:#000000;stroke-opacity:1"
         d="m 470.49315,-645.43491 c -1.60277,0 -2.98447,0.60795 -4.08983,1.71331 -1.10536,1.10536 -1.65804,2.43179 -1.65804,3.97929 0,2.04492 0.82902,3.64769 2.54233,4.75305 l 0.0553,0.0553 3.53715,2.70813 -16.69094,30.61848 c -0.11054,0.16581 -0.11054,0.33161 -0.11054,0.49741 0,0.22108 0.0553,0.44215 0.22108,0.60795 0.1658,0.16581 0.38687,0.22108 0.66321,0.22108 0.33161,0 0.60795,-0.11054 0.77375,-0.38688 l 16.58041,-30.39741 10.50092,7.07431 c 0,0 0,0.0553 0.0553,0.0553 1.49223,1.16062 2.70813,2.59759 3.64769,4.25563 0.93955,1.65804 1.43697,3.42662 1.43697,5.30573 0,3.31608 -1.2159,6.19002 -3.59243,8.62181 -2.37652,2.37653 -5.25046,3.59242 -8.62181,3.59242 -2.21072,0 -4.25563,-0.49741 -6.24528,-1.3817 -1.98965,-0.93955 -3.53715,-2.21072 -4.58725,-3.81349 -0.22107,-0.33161 -0.44214,-0.44214 -0.77375,-0.44214 -0.22107,0 -0.44214,0.0553 -0.60795,0.27634 -0.22107,0.1658 -0.27634,0.38687 -0.27634,0.60794 0,0.22108 0.0553,0.38688 0.16581,0.55268 1.21589,1.82385 2.98447,3.26082 5.25046,4.31091 2.21072,1.10536 4.58724,1.60277 7.0743,1.60277 3.86877,0 7.12958,-1.32643 9.89298,-4.08983 2.70813,-2.7634 4.08983,-6.02422 4.08983,-9.89298 0,-2.10018 -0.55268,-4.1451 -1.60277,-6.02421 -1.05009,-1.87911 -2.43179,-3.48188 -4.08983,-4.86358 l -0.0553,-0.0553 -10.83253,-7.29538 2.32125,-4.20037 0,-0.0553 c 0,0 0.0553,-0.0553 0.0553,-0.11053 0.44215,-0.82902 0.66322,-1.71331 0.66322,-2.70814 0,-1.5475 -0.55268,-2.87393 -1.65804,-3.97929 -1.10536,-1.10536 -2.48706,-1.71331 -4.03457,-1.71331 z m 0,1.76858 c 1.10536,0 1.98965,0.38687 2.7634,1.16062 0.77376,0.77376 1.16063,1.71331 1.16063,2.7634 0,0.71849 -0.1658,1.3817 -0.49741,1.93439 l -2.15545,4.03456 -3.31608,-2.54233 -0.0553,-0.0553 -0.0553,0 0,-0.0553 c -1.2159,-0.77376 -1.82384,-1.87912 -1.82384,-3.31609 0,-1.05009 0.38687,-1.98964 1.16062,-2.7634 0.77376,-0.77375 1.71331,-1.16062 2.81867,-1.16062 z" />
      <path
         inkscape:connector-curvature="0"
         id="path3402"
         style="font-style:normal;font-variant:normal;font-weight:100;font-stretch:normal;font-size:113.18888855px;font-family:Mill;-inkscape-font-specification:'Mill Thin';fill:none;stroke:#000000;stroke-opacity:1"
         d="m 498.12717,-660.74415 c -0.27634,0 -0.49741,0.11054 -0.71849,0.27634 -0.22107,0.22107 -0.27634,0.44214 -0.27634,0.71848 l 0,33.27135 0,0.1658 0,0.11054 0,24.92587 c 0,0.27634 0.0553,0.49741 0.27634,0.71849 0.22108,0.22107 0.44215,0.27634 0.71849,0.27634 0.27634,0 0.49741,-0.0553 0.71848,-0.27634 0.16581,-0.22108 0.27634,-0.44215 0.27634,-0.71849 l 0,-24.7048 9.83771,-11.49575 c 1.21589,-0.22107 2.43179,-0.38687 3.75822,-0.38687 4.86359,0 9.00869,1.71331 12.49057,5.08465 3.42662,3.37135 5.25046,7.46119 5.361,12.32477 l 0,19.178 c 0,0.27634 0.0553,0.49741 0.27634,0.71849 0.1658,0.22107 0.38688,0.27634 0.66322,0.27634 0.27634,0 0.49741,-0.0553 0.71848,-0.27634 0.16581,-0.22108 0.27634,-0.44215 0.27634,-0.71849 l 0,-19.178 0,-0.0553 c -0.11053,-3.48188 -0.99482,-6.68743 -2.7634,-9.6719 -1.76858,-2.98447 -4.20037,-5.30573 -7.18484,-7.0743 -3.03974,-1.71331 -6.30055,-2.5976 -9.83771,-2.5976 -0.44214,0 -0.99482,0.0553 -1.76857,0.11053 l 13.04325,-15.1987 c 0.11053,-0.11053 0.22107,-0.33161 0.22107,-0.66321 0,-0.27634 -0.11054,-0.49742 -0.27634,-0.71849 -0.22107,-0.1658 -0.44214,-0.27634 -0.66322,-0.27634 -0.38687,0 -0.66321,0.1658 -0.82902,0.38688 l -14.64602,17.07781 0,0.0553 -0.1658,0.1658 -8.51128,9.94825 0,-30.78429 c 0,-0.27634 -0.11053,-0.49741 -0.27634,-0.71848 -0.22107,-0.1658 -0.44214,-0.27634 -0.71848,-0.27634 z" />
    </g>
    <g
       id="text4244"
       style="font-style:normal;font-weight:normal;font-size:90.55110931px;line-height:125%;font-family:sans-serif;letter-spacing:0px;word-spacing:0px;fill:none;fill-opacity:1;stroke:#000000;stroke-width:1px;stroke-linecap:butt;stroke-linejoin:miter;stroke-opacity:1"
       transform="matrix(0.99391384,0,0,0.99391382,198.34307,824.70409)">
      <path
         inkscape:connector-curvature="0"
         id="path3405"
         style="font-style:normal;font-variant:normal;font-weight:100;font-stretch:normal;font-size:60.36740875px;font-family:Mill;-inkscape-font-specification:'Mill Thin';fill:none;stroke:#000000;stroke-opacity:1"
         d="m 242.15557,-586.53379 c -0.14738,0 -0.26528,0.059 -0.35371,0.14738 -0.11791,0.11791 -0.14738,0.23581 -0.14738,0.3832 l 0,8.90183 0,12.23265 0,0.0295 0,10.02193 c 0,0.14739 0.0295,0.26529 0.14738,0.3832 0.1179,0.1179 0.23581,0.14738 0.38319,0.14738 0.14738,0 0.26528,-0.0295 0.38319,-0.14738 0.0884,-0.11791 0.14738,-0.23581 0.14738,-0.3832 l 0,-5.42363 c 0.88429,1.79805 2.15177,3.24239 3.86139,4.33301 1.70963,1.09062 3.56663,1.6212 5.62997,1.6212 1.91596,0 3.68454,-0.47162 5.30573,-1.41486 1.6212,-0.94325 2.88868,-2.21072 3.83192,-3.83192 0.94324,-1.62119 1.41486,-3.38977 1.41486,-5.30573 0,-1.56224 -0.35372,-3.03606 -1.0022,-4.42144 -0.64847,-1.41486 -1.56224,-2.59391 -2.71181,-3.56663 0.70743,-1.35591 1.06114,-2.77077 1.06114,-4.24458 0,-2.53496 -0.91376,-4.71621 -2.71181,-6.51426 -1.82753,-1.79805 -3.9793,-2.71182 -6.51426,-2.71182 -1.7391,0 -3.33082,0.47162 -4.80463,1.35591 -1.47382,0.88429 -2.59392,2.09282 -3.38978,3.59611 l 0,-4.65725 c 0,-0.14739 -0.0295,-0.26529 -0.14738,-0.3832 -0.0884,-0.0884 -0.20633,-0.14738 -0.38319,-0.14738 z m 8.6955,1.26748 c 2.26968,0 4.18563,0.82534 5.77735,2.41706 1.59172,1.59172 2.38758,3.53715 2.38758,5.77735 0,1.238 -0.26529,2.44653 -0.82534,3.5961 -1.76857,-1.26748 -3.77296,-1.88648 -6.01316,-1.88648 -2.476,0 -4.68672,0.76638 -6.63216,2.32863 -0.1179,0.1179 -0.20633,0.26528 -0.20633,0.44214 0,0.11791 0.059,0.23581 0.14738,0.35372 0.11791,0.1179 0.23581,0.17685 0.38319,0.17685 0.14738,0 0.26529,-0.059 0.35372,-0.14738 1.7391,-1.41486 3.71401,-2.09281 5.9542,-2.09281 2.18125,0 4.12668,0.64847 5.77735,1.94543 0.059,0.0295 0.0884,0.0589 0.14739,0.11791 1.12009,0.88428 2.00438,1.97491 2.65286,3.27186 0.64848,1.29696 0.94324,2.68234 0.94324,4.15616 0,1.70962 -0.41267,3.30134 -1.26748,4.77515 -0.82533,1.44434 -1.97491,2.59392 -3.44872,3.44873 -1.47382,0.82533 -3.06554,1.26748 -4.77516,1.26748 -1.70962,0 -3.30134,-0.44215 -4.77516,-1.26748 -1.47381,-0.85481 -2.62338,-2.00439 -3.4782,-3.44873 -0.82533,-1.47381 -1.26748,-3.06553 -1.26748,-4.77515 l 0,-12.26213 c 0,-2.2402 0.79586,-4.18563 2.38758,-5.77735 1.59172,-1.59172 3.53716,-2.41706 5.77735,-2.41706 z" />
      <path
         inkscape:connector-curvature="0"
         id="path3407"
         style="font-style:normal;font-variant:normal;font-weight:100;font-stretch:normal;font-size:60.36740875px;font-family:Mill;-inkscape-font-specification:'Mill Thin';fill:none;stroke:#000000;stroke-opacity:1"
         d="m 268.65474,-575.39176 c -0.14738,0 -0.26528,0.059 -0.35371,0.14739 -0.11791,0.1179 -0.14738,0.23581 -0.14738,0.35371 l 0,0.0295 0,4.5983 0,0.0884 0,0.0589 0,15.29818 c 0,0.14739 0.0295,0.26529 0.14738,0.3832 0.0884,0.1179 0.20633,0.14738 0.35371,0.14738 0.14738,0 0.26529,-0.0295 0.38319,-0.14738 0.0884,-0.11791 0.14738,-0.23581 0.14738,-0.3832 l 0,-15.20975 c 0.88429,-1.23801 2.00439,-2.2402 3.3603,-2.97711 1.35591,-0.7369 2.8592,-1.1201 4.45092,-1.1201 1.29695,0 2.53496,0.26529 3.71401,0.73691 1.1201,0.47162 2.12229,1.17905 3.03605,2.06334 0.88429,0.88429 1.56225,1.88648 2.03387,3.00658 0.0589,0.23581 0.23581,0.32424 0.47162,0.32424 0.1179,0 0.23581,-0.0295 0.35371,-0.14738 0.11791,-0.0884 0.17686,-0.20634 0.17686,-0.35372 0,-0.0884 -0.0295,-0.14738 -0.0589,-0.20633 -0.53058,-1.26748 -1.26748,-2.38758 -2.2402,-3.3603 -1.00219,-1.00219 -2.12229,-1.7391 -3.36029,-2.26967 -1.35591,-0.56005 -2.7413,-0.85481 -4.12668,-0.85481 -1.53277,0 -2.94763,0.32424 -4.30354,0.91376 -1.35591,0.619 -2.50548,1.47382 -3.50768,2.56444 l 0,-3.15396 0,-0.0295 c 0,-0.1179 -0.059,-0.23581 -0.14738,-0.35371 -0.1179,-0.0884 -0.23581,-0.14739 -0.38319,-0.14739 z" />
      <path
         inkscape:connector-curvature="0"
         id="path3409"
         style="font-style:normal;font-variant:normal;font-weight:100;font-stretch:normal;font-size:60.36740875px;font-family:Mill;-inkscape-font-specification:'Mill Thin';fill:none;stroke:#000000;stroke-opacity:1"
         d="m 292.08838,-575.39176 c -0.14738,0 -0.26529,0.059 -0.35372,0.14739 -0.1179,0.1179 -0.14738,0.23581 -0.14738,0.38319 l 0,10.22826 0,0.0295 c 0.0295,1.88648 0.53057,3.59611 1.47382,5.18783 0.94324,1.59171 2.21072,2.82972 3.83191,3.74348 1.59172,0.94324 3.3603,1.38539 5.24678,1.38539 1.35591,0 2.68234,-0.23581 3.94982,-0.76639 1.238,-0.50109 2.3581,-1.20852 3.33082,-2.15176 l 0,2.38757 c 0,0.14739 0.0295,0.26529 0.14738,0.3832 0.0884,0.1179 0.20633,0.14738 0.35371,0.14738 0.14739,0 0.26529,-0.0295 0.3832,-0.14738 0.1179,-0.11791 0.17685,-0.23581 0.17685,-0.3832 l 0,-3.68453 0,-0.0295 0,-0.0589 0,-16.2709 c 0,-0.14738 -0.0589,-0.26529 -0.17685,-0.35372 -0.11791,-0.1179 -0.23581,-0.14738 -0.3832,-0.14738 -0.14738,0 -0.26528,0.0295 -0.35371,0.14738 -0.11791,0.0884 -0.14738,0.20634 -0.14738,0.35372 l 0,16.12352 c -0.88429,1.06115 -1.97491,1.91596 -3.24239,2.50548 -1.26748,0.58953 -2.62339,0.88429 -4.03825,0.88429 -2.59391,0 -4.83411,-0.88429 -6.66164,-2.68234 -1.82753,-1.79805 -2.77077,-4.00877 -2.82972,-6.60269 l 0,-10.22826 c 0,-0.14738 -0.059,-0.26529 -0.17686,-0.35372 -0.1179,-0.1179 -0.23581,-0.17686 -0.38319,-0.17686 z" />
      <path
         inkscape:connector-curvature="0"
         id="path3411"
         style="font-style:normal;font-variant:normal;font-weight:100;font-stretch:normal;font-size:60.36740875px;font-family:Mill;-inkscape-font-specification:'Mill Thin';fill:none;stroke:#000000;stroke-opacity:1"
         d="m 326.22191,-575.39176 c -1.91596,0 -3.68454,0.47163 -5.30573,1.41487 -1.6212,0.94324 -2.88868,2.24019 -3.83192,3.86139 -0.94324,1.62119 -1.41486,3.38977 -1.41486,5.27625 0,1.91596 0.47162,3.68454 1.41486,5.30573 0.94324,1.6212 2.21072,2.88867 3.83192,3.83192 1.62119,0.94324 3.38977,1.41486 5.30573,1.41486 1.79805,0 3.4782,-0.41267 5.04044,-1.26748 1.53277,-0.82534 2.80025,-1.97491 3.74349,-3.41925 0.059,-0.0589 0.0884,-0.14738 0.0884,-0.29476 0,-0.14738 -0.059,-0.26529 -0.17685,-0.35372 -0.11791,-0.0884 -0.23581,-0.14738 -0.35372,-0.14738 -0.17686,0 -0.32424,0.0884 -0.41267,0.20633 -0.88428,1.29696 -2.00438,2.32863 -3.38977,3.09501 -1.41486,0.76639 -2.91815,1.1201 -4.53934,1.1201 -1.70963,0 -3.30135,-0.41267 -4.77516,-1.26748 -1.47381,-0.82533 -2.62339,-1.97491 -3.44872,-3.44872 -0.85482,-1.44434 -1.26748,-3.03606 -1.26748,-4.77516 0,-1.70962 0.41266,-3.30134 1.26748,-4.77516 0.82533,-1.44433 1.97491,-2.59391 3.44872,-3.44872 1.47381,-0.82534 3.06553,-1.26748 4.77516,-1.26748 1.62119,0 3.12448,0.38319 4.53934,1.14958 1.38539,0.76638 2.50549,1.76857 3.38977,3.06553 0.11791,0.17686 0.26529,0.23581 0.44215,0.23581 0.1179,0 0.23581,-0.0295 0.35371,-0.14738 0.0884,-0.0884 0.14738,-0.20634 0.14738,-0.38319 0,-0.11791 -0.0295,-0.20634 -0.0884,-0.26529 -0.94324,-1.44434 -2.21072,-2.59391 -3.74349,-3.44873 -1.56224,-0.82533 -3.24239,-1.26748 -5.04044,-1.26748 z" />
      <path
         inkscape:connector-curvature="0"
         id="path3413"
         style="font-style:normal;font-variant:normal;font-weight:100;font-stretch:normal;font-size:60.36740875px;font-family:Mill;-inkscape-font-specification:'Mill Thin';fill:none;stroke:#000000;stroke-opacity:1"
         d="m 350.27455,-575.39176 c -1.91596,0 -3.68454,0.47163 -5.30573,1.41487 -1.6212,0.94324 -2.88868,2.24019 -3.83192,3.86139 -0.94324,1.62119 -1.41486,3.38977 -1.41486,5.27625 0,1.91596 0.47162,3.68454 1.41486,5.30573 0.94324,1.6212 2.21072,2.88867 3.83192,3.83192 1.62119,0.94324 3.38977,1.41486 5.30573,1.41486 1.79805,0 3.4782,-0.41267 5.04044,-1.26748 1.53277,-0.82534 2.80025,-1.97491 3.74349,-3.41925 0.059,-0.0884 0.1179,-0.17686 0.1179,-0.29476 0,-0.14738 -0.0589,-0.26529 -0.17685,-0.38319 -0.11791,-0.0884 -0.23581,-0.14739 -0.35372,-0.14739 -0.17686,0 -0.32424,0.0884 -0.44214,0.23581 -0.88429,1.29696 -2.00439,2.32863 -3.38977,3.09501 -1.41487,0.76639 -2.91816,1.1201 -4.53935,1.1201 -1.70962,0 -3.30134,-0.41267 -4.77516,-1.26748 -1.47381,-0.82533 -2.62339,-1.97491 -3.44872,-3.44872 -0.85481,-1.44434 -1.26748,-3.03606 -1.26748,-4.77516 0,-1.70962 0.41267,-3.30134 1.26748,-4.77516 0.82533,-1.44433 1.97491,-2.59391 3.44872,-3.44872 1.47382,-0.82534 3.06554,-1.26748 4.77516,-1.26748 2.32862,0 4.36249,0.76638 6.13106,2.2402 1.76858,1.47381 2.82973,3.36029 3.24239,5.60049 l -16.03509,0 c -0.17686,0 -0.29476,0.0589 -0.38319,0.17686 -0.11791,0.1179 -0.14738,0.23581 -0.14738,0.35371 0,0.14738 0.0295,0.26529 0.14738,0.38319 0.0884,0.11791 0.20633,0.17686 0.38319,0.17686 l 16.6541,0 c 0.1179,0 0.23581,-0.0589 0.35371,-0.17686 0.11791,-0.1179 0.17686,-0.23581 0.17686,-0.38319 l -0.0295,0 0,-0.0589 c -0.29476,-2.65286 -1.44433,-4.86359 -3.44872,-6.66164 -2.00439,-1.79805 -4.33301,-2.71182 -7.04483,-2.71182 z" />
      <path
         inkscape:connector-curvature="0"
         id="path3415"
         style="font-style:normal;font-variant:normal;font-weight:100;font-stretch:normal;font-size:60.36740875px;font-family:Mill;-inkscape-font-specification:'Mill Thin';fill:none;stroke:#000000;stroke-opacity:1"
         d="m 390.65705,-586.53379 c -2.29915,0 -4.27406,0.82534 -5.89526,2.44653 -1.65067,1.65068 -2.44653,3.59611 -2.44653,5.86578 0,2.09282 0.67796,3.92035 2.06334,5.48259 0,0.0295 0.0589,0.0884 0.14738,0.17686 0.58953,0.64848 1.26748,1.20852 2.03387,1.62119 0.059,0.0589 0.14738,0.0589 0.26528,0.0589 0.14738,0 0.26529,-0.0295 0.38319,-0.14738 0.0884,-0.0884 0.14739,-0.20633 0.14739,-0.38319 0,-0.20633 -0.0884,-0.35371 -0.26529,-0.44214 -0.5011,-0.26529 -0.97272,-0.619 -1.41486,-1.06115 1.53276,-0.94324 3.18344,-1.41486 4.98149,-1.41486 1.70962,0 3.30134,0.44214 4.77515,1.26748 1.44434,0.85481 2.59392,2.00439 3.44873,3.44872 0.82533,1.47382 1.26748,3.06554 1.26748,4.77516 0,1.7391 -0.44215,3.33082 -1.26748,4.77516 -0.85481,1.47381 -2.00439,2.62339 -3.44873,3.44872 -1.47381,0.85481 -3.06553,1.26748 -4.77515,1.26748 -1.7391,0 -3.33082,-0.41267 -4.77516,-1.26748 -1.47381,-0.82533 -2.62339,-1.97491 -3.44872,-3.44872 -0.85481,-1.44434 -1.26748,-3.03606 -1.26748,-4.77516 0,-0.1179 -0.0589,-0.23581 -0.17686,-0.35371 -0.1179,-0.11791 -0.23581,-0.17686 -0.38319,-0.17686 -0.14738,0 -0.26529,0.0589 -0.35372,0.17686 -0.1179,0.1179 -0.14738,0.23581 -0.14738,0.35371 0,1.91596 0.47162,3.68454 1.41486,5.30573 0.94324,1.6212 2.21072,2.88867 3.83192,3.83192 1.62119,0.94324 3.38977,1.41486 5.30573,1.41486 1.88648,0 3.65506,-0.47162 5.27625,-1.41486 1.6212,-0.94325 2.91815,-2.21072 3.86139,-3.83192 0.94324,-1.62119 1.41486,-3.38977 1.41486,-5.30573 0,-1.88648 -0.47162,-3.65506 -1.41486,-5.27625 -0.94324,-1.6212 -2.24019,-2.91815 -3.86139,-3.86139 -1.62119,-0.94324 -3.38977,-1.41487 -5.27625,-1.41487 -2.06334,0 -3.9793,0.56005 -5.7184,1.68015 -1.06114,-1.29695 -1.56224,-2.80024 -1.56224,-4.50987 0,-2.00438 0.70743,-3.71401 2.12229,-5.12887 1.41486,-1.41486 3.12449,-2.15177 5.15835,-2.15177 2.00438,0 3.74348,0.73691 5.15835,2.15177 1.41486,1.41486 2.12229,3.12449 2.12229,5.12887 0,0.17686 0.0295,0.29477 0.14738,0.38319 0.0884,0.11791 0.20633,0.14739 0.35371,0.14739 0.14739,0 0.26529,-0.0295 0.3832,-0.14739 0.1179,-0.0884 0.17685,-0.20633 0.17685,-0.38319 0,-2.26967 -0.82533,-4.2151 -2.44653,-5.86578 -1.65067,-1.62119 -3.5961,-2.44653 -5.89525,-2.44653 z" />
      <path
         inkscape:connector-curvature="0"
         id="path3417"
         style="font-style:normal;font-variant:normal;font-weight:100;font-stretch:normal;font-size:60.36740875px;font-family:Mill;-inkscape-font-specification:'Mill Thin';fill:none;stroke:#000000;stroke-opacity:1"
         d="m 406.92795,-586.09164 c -0.14738,0 -0.26529,0.0589 -0.35372,0.17686 -0.1179,0.1179 -0.14738,0.23581 -0.14738,0.35371 l 0,10.64094 0,0.0884 0,0.059 0,9.96298 c 0,1.88648 0.47162,3.65506 1.41486,5.27625 0.94324,1.6212 2.21072,2.91815 3.83192,3.86139 1.62119,0.94324 3.38977,1.38539 5.30573,1.38539 2.77077,0 5.18782,-0.94324 7.25116,-2.88868 0.11791,-0.1179 0.17686,-0.23581 0.17686,-0.38319 0,-0.14738 -0.0589,-0.26529 -0.17686,-0.38319 -0.1179,-0.11791 -0.23581,-0.14738 -0.35371,-0.14738 -0.11791,0 -0.23581,0.059 -0.35372,0.17686 -1.82753,1.70962 -4.00877,2.59391 -6.54373,2.59391 -1.7391,0 -3.33082,-0.44215 -4.77516,-1.26748 -1.47381,-0.85481 -2.62339,-2.00439 -3.44872,-3.44873 -0.85481,-1.47381 -1.26748,-3.06553 -1.26748,-4.77515 l 0,-9.49136 6.16054,0 c 0.1179,0 0.23581,-0.059 0.35371,-0.17686 0.0884,-0.11791 0.14739,-0.23581 0.14739,-0.38319 0,-0.14738 -0.059,-0.26529 -0.14739,-0.35372 -0.1179,-0.1179 -0.23581,-0.14738 -0.35371,-0.14738 l -6.16054,0 0,-10.19879 c 0,-0.1179 -0.059,-0.23581 -0.17686,-0.35371 -0.11791,-0.11791 -0.23581,-0.17686 -0.38319,-0.17686 z" />
      <path
         inkscape:connector-curvature="0"
         id="path3419"
         style="font-style:normal;font-variant:normal;font-weight:100;font-stretch:normal;font-size:60.36740875px;font-family:Mill;-inkscape-font-specification:'Mill Thin';fill:none;stroke:#000000;stroke-opacity:1"
         d="m 439.17499,-575.39176 c -1.91596,0 -3.68454,0.47163 -5.30573,1.41487 -1.6212,0.94324 -2.88868,2.24019 -3.83192,3.86139 -0.94324,1.62119 -1.41486,3.38977 -1.41486,5.27625 0,1.91596 0.47162,3.68454 1.41486,5.30573 0.94324,1.6212 2.21072,2.88867 3.83192,3.83192 1.62119,0.94324 3.38977,1.41486 5.30573,1.41486 1.79805,0 3.4782,-0.41267 5.04044,-1.26748 1.53276,-0.82534 2.80024,-1.97491 3.74349,-3.41925 0.059,-0.0884 0.1179,-0.17686 0.1179,-0.29476 0,-0.14738 -0.0589,-0.26529 -0.17686,-0.38319 -0.1179,-0.0884 -0.23581,-0.14739 -0.35371,-0.14739 -0.17686,0 -0.32424,0.0884 -0.44215,0.23581 -0.88429,1.29696 -2.00438,2.32863 -3.38977,3.09501 -1.41486,0.76639 -2.91815,1.1201 -4.53934,1.1201 -1.70963,0 -3.30135,-0.41267 -4.77516,-1.26748 -1.47381,-0.82533 -2.62339,-1.97491 -3.44872,-3.44872 -0.85482,-1.44434 -1.26748,-3.03606 -1.26748,-4.77516 0,-1.70962 0.41266,-3.30134 1.26748,-4.77516 0.82533,-1.44433 1.97491,-2.59391 3.44872,-3.44872 1.47381,-0.82534 3.06553,-1.26748 4.77516,-1.26748 2.32862,0 4.36248,0.76638 6.13106,2.2402 1.76858,1.47381 2.82972,3.36029 3.24239,5.60049 l -16.03509,0 c -0.17686,0 -0.29477,0.0589 -0.38319,0.17686 -0.11791,0.1179 -0.14739,0.23581 -0.14739,0.35371 0,0.14738 0.0295,0.26529 0.14739,0.38319 0.0884,0.11791 0.20633,0.17686 0.38319,0.17686 l 16.65409,0 c 0.11791,0 0.23581,-0.0589 0.35372,-0.17686 0.1179,-0.1179 0.17686,-0.23581 0.17686,-0.38319 l -0.0295,0 0,-0.0589 c -0.29476,-2.65286 -1.44434,-4.86359 -3.44873,-6.66164 -2.00438,-1.79805 -4.33301,-2.71182 -7.04482,-2.71182 z" />
      <path
         inkscape:connector-curvature="0"
         id="path3421"
         style="font-style:normal;font-variant:normal;font-weight:100;font-stretch:normal;font-size:60.36740875px;font-family:Mill;-inkscape-font-specification:'Mill Thin';fill:none;stroke:#000000;stroke-opacity:1"
         d="m 455.41641,-575.39176 c -0.14738,0 -0.26529,0.059 -0.35372,0.14739 -0.1179,0.1179 -0.14738,0.23581 -0.14738,0.35371 l 0,0.0295 0,4.5983 0,0.0884 0,0.0589 0,15.29818 c 0,0.14739 0.0295,0.26529 0.14738,0.3832 0.0884,0.1179 0.20634,0.14738 0.35372,0.14738 0.14738,0 0.26529,-0.0295 0.38319,-0.14738 0.0884,-0.11791 0.14738,-0.23581 0.14738,-0.3832 l 0,-15.20975 c 0.88429,-1.23801 2.00439,-2.2402 3.3603,-2.97711 1.35591,-0.7369 2.8592,-1.1201 4.45091,-1.1201 1.29696,0 2.53496,0.26529 3.71402,0.73691 1.12009,0.47162 2.12229,1.17905 3.03605,2.06334 0.88429,0.88429 1.56224,1.88648 2.03386,3.00658 0.059,0.23581 0.23581,0.32424 0.47162,0.32424 0.11791,0 0.23581,-0.0295 0.35372,-0.14738 0.11791,-0.0884 0.17686,-0.20634 0.17686,-0.35372 0,-0.0884 -0.0295,-0.14738 -0.059,-0.20633 -0.53058,-1.26748 -1.26748,-2.38758 -2.2402,-3.3603 -1.0022,-1.00219 -2.12229,-1.7391 -3.3603,-2.26967 -1.35591,-0.56005 -2.74129,-0.85481 -4.12668,-0.85481 -1.53276,0 -2.94762,0.32424 -4.30353,0.91376 -1.35591,0.619 -2.50548,1.47382 -3.50768,2.56444 l 0,-3.15396 0,-0.0295 c 0,-0.1179 -0.0589,-0.23581 -0.14738,-0.35371 -0.1179,-0.0884 -0.23581,-0.14739 -0.38319,-0.14739 z" />
      <path
         inkscape:connector-curvature="0"
         id="path3423"
         style="font-style:normal;font-variant:normal;font-weight:100;font-stretch:normal;font-size:60.36740875px;font-family:Mill;-inkscape-font-specification:'Mill Thin';fill:none;stroke:#000000;stroke-opacity:1"
         d="m 479.14481,-586.53379 c -0.14738,0 -0.26528,0.059 -0.35371,0.14738 -0.11791,0.11791 -0.14738,0.23581 -0.14738,0.3832 l 0,31.18589 c 0,0.14739 0.0295,0.26529 0.14738,0.3832 0.1179,0.1179 0.23581,0.14738 0.38319,0.14738 0.14738,0 0.26529,-0.0295 0.38319,-0.14738 0.0884,-0.11791 0.14738,-0.23581 0.14738,-0.3832 l 0,-31.18589 c 0,-0.14739 -0.0589,-0.26529 -0.14738,-0.3832 -0.1179,-0.0884 -0.23581,-0.14738 -0.38319,-0.14738 l -0.0295,0 z" />
      <path
         inkscape:connector-curvature="0"
         id="path3425"
         style="font-style:normal;font-variant:normal;font-weight:100;font-stretch:normal;font-size:60.36740875px;font-family:Mill;-inkscape-font-specification:'Mill Thin';fill:none;stroke:#000000;stroke-opacity:1"
         d="m 486.27808,-586.53379 c -0.47162,0 -0.85481,0.17686 -1.17905,0.47162 -0.32424,0.32424 -0.47162,0.70743 -0.47162,1.17905 0,0.47163 0.14738,0.85482 0.47162,1.17906 0.32424,0.29476 0.70743,0.47162 1.17905,0.47162 0.44214,0 0.82533,-0.17686 1.14957,-0.47162 0.29477,-0.32424 0.47162,-0.70743 0.47162,-1.17906 0,-0.47162 -0.17685,-0.85481 -0.47162,-1.17905 -0.32424,-0.29476 -0.70743,-0.47162 -1.14957,-0.47162 z m 0,1.03167 c 0.17686,0 0.29476,0.059 0.41267,0.17686 0.1179,0.11791 0.17685,0.26529 0.17685,0.44214 0,0.17686 -0.0589,0.29477 -0.17685,0.41267 -0.11791,0.11791 -0.23581,0.14738 -0.41267,0.14738 -0.17686,0 -0.29476,-0.0295 -0.41267,-0.14738 -0.1179,-0.1179 -0.17686,-0.23581 -0.17686,-0.41267 0,-0.17685 0.059,-0.32423 0.17686,-0.44214 0.11791,-0.1179 0.23581,-0.17686 0.41267,-0.17686 z m -0.0295,10.13984 c -0.14738,0 -0.26528,0.0295 -0.35371,0.14738 -0.11791,0.0884 -0.14738,0.20634 -0.14738,0.38319 l 0,20.04387 c 0,0.11791 0.0295,0.23581 0.14738,0.35372 0.1179,0.1179 0.23581,0.14738 0.38319,0.14738 0.1179,0 0.23581,-0.0295 0.35371,-0.11791 0.0884,-0.1179 0.14739,-0.23581 0.14739,-0.38319 l 0,-20.04387 c 0,-0.17685 -0.059,-0.29476 -0.14739,-0.38319 -0.1179,-0.1179 -0.23581,-0.14738 -0.35371,-0.14738 l -0.0295,0 z" />
      <path
         inkscape:connector-curvature="0"
         id="path3427"
         style="font-style:normal;font-variant:normal;font-weight:100;font-stretch:normal;font-size:60.36740875px;font-family:Mill;-inkscape-font-specification:'Mill Thin';fill:none;stroke:#000000;stroke-opacity:1"
         d="m 493.49977,-575.39176 c -0.17686,0 -0.29476,0.059 -0.38319,0.14739 -0.0884,0.1179 -0.11791,0.23581 -0.11791,0.35371 l 0,0.0295 0,3.65506 0,0.059 0,0.0589 0,16.2709 c 0,0.14739 0.0295,0.26529 0.14738,0.3832 0.0884,0.1179 0.20634,0.14738 0.35372,0.14738 0.14738,0 0.26528,-0.0295 0.38319,-0.14738 0.0884,-0.11791 0.14738,-0.23581 0.14738,-0.3832 l 0,-16.12352 c 0.88429,-1.06114 1.97491,-1.88648 3.24239,-2.476 1.238,-0.58953 2.59391,-0.91377 4.03825,-0.91377 2.56444,0 4.77516,0.91377 6.63216,2.71182 1.82753,1.79805 2.80025,3.97929 2.8592,6.54373 l 0,0.0295 0,10.22826 c 0,0.14739 0.0295,0.26529 0.14738,0.3832 0.11791,0.1179 0.23581,0.14738 0.38319,0.14738 0.11791,0 0.23581,-0.0295 0.35372,-0.14738 0.1179,-0.11791 0.17686,-0.23581 0.17686,-0.3832 l 0,-10.25774 c -0.059,-1.857 -0.56005,-3.56663 -1.50329,-5.15835 -0.94324,-1.59172 -2.2402,-2.82972 -3.83192,-3.77296 -1.59172,-0.91376 -3.33082,-1.38539 -5.2173,-1.38539 -2.80025,0 -5.2173,0.97272 -7.28064,2.91816 l 0,-2.38758 0,-0.0295 c 0,-0.1179 -0.059,-0.23581 -0.14738,-0.35371 -0.11791,-0.0884 -0.23581,-0.14739 -0.35372,-0.14739 l -0.0295,0 z" />
      <path
         inkscape:connector-curvature="0"
         id="path3429"
         style="font-style:normal;font-variant:normal;font-weight:100;font-stretch:normal;font-size:60.36740875px;font-family:Mill;-inkscape-font-specification:'Mill Thin';fill:none;stroke:#000000;stroke-opacity:1"
         d="m 535.8277,-575.39176 c -0.14738,0 -0.26529,0.059 -0.35372,0.14739 -0.1179,0.1179 -0.14738,0.23581 -0.14738,0.38319 l 0,2.91815 c -1.00219,-1.06115 -2.15177,-1.91596 -3.50767,-2.53496 -1.35591,-0.58953 -2.80025,-0.91377 -4.33302,-0.91377 -1.91595,0 -3.68453,0.47163 -5.30573,1.41487 -1.62119,0.94324 -2.88867,2.24019 -3.83191,3.86139 -0.94324,1.62119 -1.41486,3.38977 -1.41486,5.27625 0,1.91596 0.47162,3.68454 1.41486,5.30573 0.94324,1.6212 2.21072,2.88867 3.83191,3.83192 1.6212,0.94324 3.38978,1.41486 5.30573,1.41486 1.53277,0 2.97711,-0.29477 4.33302,-0.91377 1.3559,-0.58952 2.50548,-1.44434 3.50767,-2.53496 l 0,3.56663 c 0,1.7391 -0.44214,3.33082 -1.26748,4.77516 -0.85481,1.47381 -2.00438,2.62339 -3.4782,3.44872 -1.47381,0.85481 -3.03605,1.26748 -4.74568,1.26748 -1.26748,0 -2.476,-0.20633 -3.5961,-0.67795 -1.1201,-0.44215 -2.12229,-1.09062 -2.97711,-1.91596 -0.1179,-0.11791 -0.23581,-0.17686 -0.35371,-0.17686 -0.14738,0 -0.26529,0.0589 -0.38319,0.17686 -0.11791,0.11791 -0.14738,0.23581 -0.14738,0.35372 0,0.14738 0.0589,0.26528 0.17685,0.38319 0.94324,0.94324 2.06334,1.65067 3.30135,2.15176 1.238,0.53058 2.56443,0.76639 3.97929,0.76639 1.88648,0 3.65506,-0.47162 5.27626,-1.41486 1.59171,-0.94324 2.88867,-2.21072 3.83191,-3.83192 0.94324,-1.62119 1.41486,-3.38977 1.41486,-5.30573 l 0,-5.09939 0,-11.11256 0,-0.0295 0,-0.0295 0,-4.42144 c 0,-0.14738 -0.0589,-0.26529 -0.14738,-0.38319 -0.1179,-0.0884 -0.23581,-0.14739 -0.35371,-0.14739 l -0.0295,0 z m -8.34179,1.06115 c 1.59172,0 3.09501,0.38319 4.4804,1.1201 1.35591,0.73691 2.476,1.7391 3.36029,2.9771 l 0,10.8178 c -0.88429,1.26747 -2.00438,2.26967 -3.36029,2.9771 -1.38539,0.73691 -2.88868,1.09062 -4.4804,1.09062 -1.70962,0 -3.30134,-0.41267 -4.77515,-1.26748 -1.47382,-0.82533 -2.62339,-1.97491 -3.4782,-3.44872 -0.82534,-1.44434 -1.26748,-3.03606 -1.26748,-4.77516 0,-1.70962 0.44214,-3.30134 1.26748,-4.77516 0.85481,-1.44433 2.00438,-2.59391 3.4782,-3.44872 1.47381,-0.82534 3.06553,-1.26748 4.77515,-1.26748 z" />
    </g>
    <rect
       y="50.854603"
       x="338.47513"
       height="531.49603"
       width="418.11023"
       id="rect6669"
       style="fill:none;stroke:#000000;stroke-width:0.99921262;stroke-miterlimit:4;stroke-dasharray:none;stroke-opacity:1" />
    <rect
       y="50.865993"
       x="-170.83124"
       height="531.49603"
       width="418.11023"
       id="rect6669-2"
       style="fill:none;stroke:#000000;stroke-width:0.99921262;stroke-miterlimit:4;stroke-dasharray:none;stroke-opacity:1" />
  </g>
</svg>
